<svg xmlns="http://www.w3.org/2000/svg" width="487.752" height="346.601" viewBox="0 0 487.752 346.601"><defs><style>.a{fill:#e6e6e6;}.b{fill:#fdf8ff;}.c{fill:#fff;}.d{fill:#d9b3f0;}.e{fill:#7f77ff;}.f{fill:#3f3d56;}.g{fill:#c895e6;}.h{fill:#a0616a;}.i{fill:#2f2e41;}.j{fill:#cfcce0;}.k{fill:#8ce8dc;}.l{opacity:0.2;}</style></defs><ellipse class="a" cx="41.431" cy="4.962" rx="41.431" ry="4.962" transform="translate(0.021 336.676)"/><rect class="b" width="379.561" height="243.088" transform="translate(108.191 0.215)"/><rect class="c" width="357.854" height="198.217" transform="translate(119.044 30.704)"/><rect class="d" width="379.561" height="16.125" transform="translate(108.029)"/><circle class="c" cx="2.989" cy="2.989" r="2.989" transform="translate(117.023 5.255)"/><circle class="c" cx="2.989" cy="2.989" r="2.989" transform="translate(128.367 5.255)"/><circle class="c" cx="2.989" cy="2.989" r="2.989" transform="translate(139.712 5.255)"/><path class="e" d="M742.361,281.894a2.889,2.889,0,0,0-.106.68Z" transform="translate(-419.942 -201.284)"/><path class="e" d="M659.29,319.281c-.021-.5-.11-.706-.191-.731C659.158,319.012,659.213,319.392,659.29,319.281Z" transform="translate(-382.637 -217.729)"/><path class="e" d="M657.7,338.945c-.016.216-.032.415-.059.658A1.036,1.036,0,0,1,657.7,338.945Z" transform="translate(-381.969 -226.879)"/><path class="e" d="M742.027,283.128l-.281,1.748C742.038,285,741.963,283.98,742.027,283.128Z" transform="translate(-419.714 -201.838)"/><path class="e" d="M770.88,253.293h.531a2.739,2.739,0,0,0,.441-.363Z" transform="translate(-432.784 -188.29)"/><path class="e" d="M808.562,254.4a.629.629,0,0,1,.479-.52,3.43,3.43,0,0,0-.476-.537C808.307,253.307,808.579,254.065,808.562,254.4Z" transform="translate(-449.639 -188.474)"/><path class="e" d="M848.169,228.295c.07-.011.136-.021.188-.032Z" transform="translate(-467.456 -177.225)"/><path class="e" d="M847.381,228.393l.434-.073C847.671,228.342,847.508,228.365,847.381,228.393Z" transform="translate(-467.103 -177.251)"/><path class="e" d="M740.425,256.833a.252.252,0,0,0-.271.124C740.25,257.018,740.34,256.955,740.425,256.833Z" transform="translate(-419 -190.04)"/><path class="e" d="M896.326,229.863l.041.356a1.692,1.692,0,0,0,.425.077Z" transform="translate(-489.06 -177.943)"/><path class="e" d="M654.525,362.1c.005,0,.005.005-.005.016s-.005.011-.011.016-.081.022-.14.032a.463.463,0,0,0-.092-.016c.081-.011.162-.027.227-.032C654.514,362.109,654.519,362.1,654.525,362.1Z" transform="translate(-380.473 -237.268)"/><path class="e" d="M543.713,512.293c-2.126-.678,3.46-.87.259-1.623C544.27,510.967,541.063,511.852,543.713,512.293Z" transform="translate(-330.399 -303.917)"/><path class="e" d="M575.126,379.852a1.329,1.329,0,0,1-.334.48C574.953,379.976,575.045,379.868,575.126,379.852Z" transform="translate(-344.815 -245.23)"/><path class="e" d="M631.781,364.891a5.313,5.313,0,0,1-.869-.1Z" transform="translate(-369.992 -238.475)"/><path class="e" d="M554.237,384.674a2.352,2.352,0,0,0-.9,0,.9.9,0,0,0,.2.092A1.36,1.36,0,0,1,554.237,384.674Z" transform="translate(-335.192 -247.374)"/><path class="e" d="M554.966,384.709c.113.02.23.042.381.061A2.945,2.945,0,0,0,554.966,384.709Z" transform="translate(-335.921 -247.409)"/><path class="e" d="M521.259,384.828c.1.058.233.1.35.153l.6-.041Z" transform="translate(-320.8 -247.462)"/><path class="e" d="M549.778,385.752a.076.076,0,0,1-.043.059C549.756,385.779,549.778,385.752,549.778,385.752Z" transform="translate(-333.574 -247.877)"/><path class="e" d="M890.4,511.59c-.122-.011-.243-.021-.378-.035C890.168,511.573,890.291,511.583,890.4,511.59Z" transform="translate(-486.234 -304.314)"/><path class="e" d="M899.974,480.048s-.009,0-.013,0C899.966,480.072,899.97,480.066,899.974,480.048Z" transform="translate(-490.691 -290.18)"/><path class="e" d="M629.552,365.725a2.971,2.971,0,0,0,.566-.167C630.513,365.66,629.973,365.655,629.552,365.725Z" transform="translate(-369.382 -238.817)"/><path class="e" d="M898.986,359.122c.029-.128.06-.272.1-.447C899.046,358.826,899.017,358.973,898.986,359.122Z" transform="translate(-490.253 -235.73)"/><path class="d" d="M718.21,357.66a1.14,1.14,0,0,1,.243-.345l.075.27a4.878,4.878,0,0,0-.108-1.656,16.073,16.073,0,0,0,.205-2.174c.572-.308.307-3.086.34-4.424-.755.108-.637-1.613-1.246-.043.043-.092.07.367.1,1.187a3.649,3.649,0,0,0,.081.572c-.022-.027-.043-.059-.07-.092.016.879.032,2.028.054,3.334a5.454,5.454,0,0,1-.291-3.652c-.485-.685-.987-1.446-1.219-1.872,1.057-1.834,1.629-5.373,2.277-5.864-.421-4.095-.281-9.646-1.7-12.224-.183-1.165.41-1.338.637-1.775a9.816,9.816,0,0,0,.324,1.84c-.367-2.331-.14-6.9-1.138-7.456.448-2.935.917,1.651.755-2.384l.3.545c1.565-7.8-2.4-12.726-.593-21.245-.07.318-.135.507-.254.593.9-10.023-.847-20.662.583-30.556.286-2.811-.345-3.118-.831-4.834l.815-.61-.939-2.935c-.69-4.159,2-7.2.7-12.473l-.55.68c.108-1.894-.324-5.994.307-5.675a1.345,1.345,0,0,1-.281-1.359l.426-.059-.734-4.65c.308-3.6,1.694.566,1.775-4.693-.162-1.953-1.241-5.562-1.527-4.828-.016.788-.264,2.012-.691,2.072l-.221-1.786c-.081-.022-.156-.043-.237-.07v-.286H714.8a1.3,1.3,0,0,0-1.014,0h-19.34l.21-.21-.637.21h-2.73c.081-.162.34-.3.879-.361-1.985-.556-1.759.4-3.458-.221-.189-.1-.108-.151.07-.194l-1.942.334c.383-.237-.318-.793.869-.631-3.474-.647-5.605.842-6.916-.011l.291-.065c-3.609.281-2.082.6-2.6,1.149h-2.255l-.453-.378-.61-.507a4.3,4.3,0,0,0-.674-.507,6.4,6.4,0,0,0-.5.82c-.561-.027-1.716-.086-1.662-.421-.987.286-.782.372-.545.459.259.086.572.167.173.437a10.175,10.175,0,0,0-1.926-.264c-.07,1.2.016,2.649-.011,3.755-.027,1.154-.162,1.9-.691,2.131.626.858.486-2.293.923.264-1.413.717.237,2.989-.41,5.12-.728-.615-.34-2.73-.993-.529a1.92,1.92,0,0,1,.442.766,2.4,2.4,0,0,1,.022.879,8.1,8.1,0,0,1-.437,1.516,2.661,2.661,0,0,0-.976-.059c.324.491-.4.593-1.484.615-.653,0-1.4.005-2.169.005-.8.011-1.629.032-2.406.113.194-.329-5.832-.534-8.713-.89l.081-.167c-.556.993-3.528.8-5.7,1.009.086-.593.475-.825,1.651-1.09l-2.039.005a5.036,5.036,0,0,1-2.433.6l.513-.744c-1.354.022-2.719.243-4.181.394-.734.076-1.484.129-2.277.14-.394.005-.8-.005-1.214-.027-.205-.011-.415-.027-.626-.049l-.712-.081c-.076.173.189.383.356.6a4.86,4.86,0,0,1,.561.68.47.47,0,0,1,.049.464h-1.888c.005-.2.13-.388.529-.486a4.072,4.072,0,0,1-1.71.113c.432-.205.933-.415,1.5-.626-2.05-.275-.842.523-2.282.464-.3-.529-1.381-.378-1.5-.8a9.594,9.594,0,0,0,2.088.011c-1.073-.054-2.341-.178-3.507-.351a4.592,4.592,0,0,1-.464,1.489c.3.027.718.534.782,1.921.022,1.775-.14,2.061-.34,2.174-.1.054-.205.059-.307.2a1.262,1.262,0,0,0-.146.308,2.167,2.167,0,0,0-.119.448c.367.658-.016,2.385.782,2.433-.005.793-.378.939-.593,1.246.351,1.4.1,6.549.949,4.969l.054-.361c.016.07.022.146.038.232a21.972,21.972,0,0,1,.259,4.213c-.032,1.176-.146,2.293-.254,3.275-.793-.07-1.527-.129-2.212-.162-.345-.011-.68-.022-1.014-.011l-.647.016c-.227.016-.458.027-.685.038l.011-.264c-2.724.3-6.064.178-8.006.755-.8-.005-1.9-.491-1.554-.8a14.465,14.465,0,0,1-5.319.059c2.088-.464-.723-.415,2.142-.34-2.7-.232-3.318-.658-6.22.07.987-.685-2.034-.858-3.318-.658l1.894.491a33.765,33.765,0,0,1-3.992-.022l.69-.9a20.757,20.757,0,0,0-7.59.291,22.019,22.019,0,0,1-3.382.351l-.41-.005-.523-.027c-.4-.022-.815-.054-1.23-.1a24.944,24.944,0,0,1-2.7-.475c-.971.313.324.421,1.516.545,1.225.124,2.336.264,1.494.631a43.119,43.119,0,0,1-5.314-.685,20.808,20.808,0,0,0-.728,3.6c-.065.707-.086,1.349-.086,1.915,0,.281.005.55.022.8.005.113.011.281.022.334s.022.135.032.2a6.051,6.051,0,0,0,.437,1.354,6.3,6.3,0,0,1,.545,3.512c.318-.469,1.176-.906,1.473,1.818-.065,1.51-.529,2.336-.944,2.411-.232.049-.448-.14-.572-.561a1.729,1.729,0,0,1-.081-.329c-.027-.61.076-.9.183-.879-.119-.82-.254-1.9-.6-.89l.318.329a10.021,10.021,0,0,0-.2,1.4c-.146,1.451-.232,3.14-.615,2.541.264,1.645.464,1.079.62-.016-.34,2.913.038,4.726-.254,7.882.178-.534.556-1.03.55-.5-.4,4.931.61,2.174.75,5.513-.491,1.9-1.165-.68-.761,2.681-.329,2.055-.847.437-1.106-.378a11.971,11.971,0,0,1,.011,4.229c-.016.092-.027.183-.043.27-.011.065-.022.135-.032.2l-.022.113c-.005.032-.011.027-.016.038l-.043.054a.987.987,0,0,1-.162.146,1.6,1.6,0,0,0-.216.151,1.1,1.1,0,0,0-.194-.232.358.358,0,0,1,.086.275,2.007,2.007,0,0,0,.2.119,2.073,2.073,0,0,0,.437.167c-.108.156-.113.313-.324.119a.353.353,0,0,1-.065-.059,3.844,3.844,0,0,0,.669.761c.28.286.615.593.3.879a3.363,3.363,0,0,0-1.354-.054c-.113.005-.227.005-.335,0a4.307,4.307,0,0,1-.507-.059.9.9,0,0,1-.68-.388c.5.038.863.049,1.133.043.146,0,.2-.022.243-.059.076-.065.022-.189-.027-.318-.092-.221-.124-.469.038-.593a.317.317,0,0,1-.076.011.458.458,0,0,1-.14-.027c-.205-.016-.415-.038-.637-.059-.14-.1.135-.178.394-.227-.291-.059-.55-.1-.777-.135a3.792,3.792,0,0,0-1.354,0c-.982.232-.771,1.09-3.555,1.074.5-.475-.917-.906-1.559-.8,1.591.011.761.8-.7,1.165-2.53-.372-2.746.275-4.073.232l1.511.178c-.513.48-1.775.415-3.534.566-.049-.119.086-.183.281-.232-1.818.28-4-.971-6.387-.507a.319.319,0,0,0-.07.011c-1.262-.324-.124-.9-1.235-1.117-3.053.62-3.307-.658-6.522-.146.928.647,1.09.491-1.176,1.117l5.287-.453-3.393.933c1.6.011,3.366-.4,4.321-.291-1.618.523-1.451.361-.685.9-2.185-.966-4.327.566-6.846-.086l.076-1.6a15,15,0,0,0-4.839.022l-.615.081-.307.038-.081.011-.124.011-.254.022c-.664.049-1.338.1-2.034.156-1.365.092-2.757.156-4.348.146-.005.712-.027,1.451-.065,2.223l.254-2.034.2.022a.218.218,0,0,1-.1.081,10.121,10.121,0,0,1,.227,3.053c0,.092-.005.189-.005.286v.005c-.011.507-.027,1.036-.032,1.565q0,.469.016.923c.005.151.016.3.021.442l.016.21.021.146c-.534-.151-.728.847-1.057,1.527.1-.022.146.194.178.534.032.14.049.313.086.518a2.852,2.852,0,0,0,.761,1.489,1.333,1.333,0,0,1-.275.21,9.447,9.447,0,0,1-.971-.426,1.557,1.557,0,0,0-.982.113c-.07.032-.14.07-.21.108a.541.541,0,0,1-.178.059c-.076.022-.151.043-.221.065-.3.092-.577.189-.852.286a9.484,9.484,0,0,1-4.122.707c1.149-.577-.588-.955,1.974-1.37-1.279-.005-2.422-.1-2.444.264a1.1,1.1,0,0,0-.437-.065c-.642.005-1.672.254-2.616.367a4.433,4.433,0,0,1-1.365,0,1.151,1.151,0,0,1-.291-.086,1.634,1.634,0,0,0-.167.086,2.579,2.579,0,0,1-1.98.658.138.138,0,0,1-.038-.2c-.286.221-2.1.345-.944.89a16.5,16.5,0,0,0-6.307-.761c-3.048.038-6.161.264-8.1-.545-1.392.086-2.924.178-4.429.248-.75.027-1.494.059-2.206.086l-1.041.032c-.378.005-.739.016-1.084.022.108-.081.108-.146.167-.183a.678.678,0,0,1,.415-.027c-.1-.011-.162-.027-.281-.032s-.237-.016-.351-.027c-.227-.011-.437-.016-.631-.022a8.429,8.429,0,0,0-.993.054,2.971,2.971,0,0,0-1.149.356,3.186,3.186,0,0,1-1.953.734,9.4,9.4,0,0,1-.086,1.737c-.216.469-.351.577-.442.421a3.178,3.178,0,0,1-.156-.993c-.049-.858-.032-1.829-.194-1.106-.874-.388-.815,1.672-.664,3.927.076,1.311.173,1.883.189,2.708a5.956,5.956,0,0,1-.307,2.217l-.1-.647c-.6,2.039.664,4.979.539,8.313,0,0-.156-.162-.264-.022.89,2.282,1.187,6.6,1.435,9.8-.685-1-.361-1.457-1.057-.847.1,1.44,1.117-.421,1.311,2.449-.372.933-.7,3-1.446,3.28l-.043-2.708c-.96,1.386.038,3.5-.13,4.931l-.421-.183c.135,4.149,1.192,4.208,1.117,8.664l.318-.459c1.052,2.438-.588,2.045.194,4.472l-1.068.739c.259,1.608,1.03,5.627,1.23,8.513-.788-1.635-1.192-5.006-1.662-7.094-.005,1.591.081,5.416.6,6.247a5.629,5.629,0,0,1-.2-2.088,19.593,19.593,0,0,1,1.23,7.7c-.674-.183-.966.637-1.106,1.91-.005.081-.016.162-.022.248-.005.119-.016.243-.022.367-.011.254-.022.512-.038.782-.011.539-.027,1.111-.043,1.694-.027,1.192-.054,2.444-.081,3.658a19.668,19.668,0,0,1,6.048.815l.442-.038.275-.032.529-.054q.526-.048,1.052-.081c.7-.049,1.4-.065,2.109-.07,1.408-.005,2.832.054,4.283.135,2.9.162,5.918.4,9.193.34-2.32-1.6,1.91-.043,1.51-1.694a5.984,5.984,0,0,1,2.233.027l-.221-.049.232.059v-.005l4.618.982c1.1.48-1.451.361-1.311.734,3.339.13,1.4.7,3.609,1.138-.453-.588,1.16-.847,3.064-.62l-2.681-.761c4.667-.879,4.035,1.386,8.734.512l-1.489.523c2.417-.307,8.9.011,11.27-1.316.426.189.993.642-.07.761,5.767.2,12.834-1.408,17.317-.593l-.437.4c1.074-.119,1.872-.761,3.221-.356-.07.167-.437.4.065.426a13.158,13.158,0,0,1,4.283-.469l-1.219.453a26.928,26.928,0,0,0,8.588-.7,33.851,33.851,0,0,1,4.758-.685c-.011,1.187,4.413,1.575,6.625,1.764l-.081.167a58.633,58.633,0,0,0,7.86-.383c2-.221,3.944-.5,6-.734h.005l.394-.049c.475-.054.96-.1,1.451-.151l.464-.049,1.02-.081a21.087,21.087,0,0,0,5.265.745c4.219.205,9.527.038,13.541.518-.928-.216.151-.928,1.225-1.047,1.332.227,3.62-.7,3.711.086a.523.523,0,0,1-.011.178l-.48-.022h-.027l.005.005c1.074,1.063,3.987.782,6.263.809l.372-1.424c5.961,2.072,15.618-.761,18.871,1.1,1.44-.356,3.221-.351,4.645-.707l-.076.761a101.947,101.947,0,0,0,10.9.108l-1,.55c2.778.049,3.507-2.206,6.074-2.25l.766,1.138c4.85-.016,9.754.987,14.544-.049-.076.167-.221.5-1,.545,2.206.027,8.4.723,8.054-.647.529.771,5.082-.07,7.558-.5l-.4.75c1.106-.48,1.672-.788,2.352-1a7.852,7.852,0,0,1,1.182-.275c.248-.038.485-.076.825-.108.41-.032.874-.065,1.4-.1.928.092,1.084.507-.005.448a6.978,6.978,0,0,0,2.433-.108,7.018,7.018,0,0,1,2.072-.329,13.812,13.812,0,0,1,.086-1.624c.162.626.324,1.289.48,1.991a18.3,18.3,0,0,0-.146-3.458c-.129-.691-.334-1.2-.61-2.158-.022-.129-.038-.27-.049-.415s-.022-.27-.032-.415c-.011-.237-.016-.5-.011-.755a12.2,12.2,0,0,1,.156-1.6,3.518,3.518,0,0,1,.8-2.109,4.142,4.142,0,0,1-.777-3.188c.259-.2.421.334.5.61.512-4.192-.874-6.236-.135-9.117a.634.634,0,0,0,.448-.486c-.016,3.053-.054,5.557-.1,5.756.685-.038.809-2.676,1.759-.55C719.019,363.972,717.886,360.282,718.21,357.66Zm.61-5.584c.108.9-.043,1.192-.2,1.316-.011-.421-.038-.917-.092-1.564-.027-.022-.059-.076-.092-.1a1.027,1.027,0,0,1,.383.351ZM687.94,228.612a1.189,1.189,0,0,1,.259.119h-1.144C687.331,228.688,687.622,228.65,687.94,228.612Z" transform="translate(-308.502 -176.81)"/><path class="e" d="M655.243,362.622a.2.2,0,0,1-.135.065A.45.45,0,0,1,655.243,362.622Z" transform="translate(-380.846 -237.501)"/><path class="e" d="M629.328,365.884c.042-.007.083-.017.125-.025C629.409,365.866,629.367,365.875,629.328,365.884Z" transform="translate(-369.281 -238.953)"/><path class="e" d="M899.87,450.359a2.874,2.874,0,0,1-.055-.368c-.067.182-.124.356-.17.532l.238.316Z" transform="translate(-490.549 -276.696)"/><path class="e" d="M742.448,281.691a.765.765,0,0,1,.108-.249c-.037.079-.06.079-.091.13Z" transform="translate(-420.028 -201.081)"/><path class="e" d="M810.549,227.29c.244.006.519.357.466,2.939l.162-3.172,1.191.057c-.962-.293-2.55-.687-.352-.757l-1.743-.2C810.094,227.674,810.305,227.3,810.549,227.29Z" transform="translate(-450.426 -176.278)"/><path class="e" d="M810.422,251.685c-.068-.6-.174-.621-.284-.55s-.224.231-.306.156C810.1,252.006,810.165,252.353,810.422,251.685Z" transform="translate(-450.257 -187.472)"/><path class="e" d="M715.271,293.19l.188-.69C714.019,292.6,715.445,292.767,715.271,293.19Z" transform="translate(-407.629 -206.043)"/><path class="e" d="M512.021,155.63l.12-.009.222-.019.886-.076.629-.1-1.2.125-.6.062-.98.063.739-.038Z" transform="translate(-229.286 -69.727)"/><path class="e" d="M527.378,383.576l.435.849C528.786,384.274,528.99,383.319,527.378,383.576Z" transform="translate(-323.545 -246.881)"/><path class="e" d="M494.774,462.512a4.051,4.051,0,0,0-.281,3.182A29.582,29.582,0,0,0,494.774,462.512Z" transform="translate(-308.701 -282.313)"/><path class="e" d="M600.654,378.593l2.14-.237-1-.047Z" transform="translate(-269.463 -169.715)"/><path class="c" d="M734.058,348.983a81.9,81.9,0,0,1-2.724,19.378c-6.538,24.168-24.427,41.755-34.068,49.8a21.086,21.086,0,0,1-5.265-.745l-1.02.081-.464.049c-.491.049-.976.1-1.451.151l-.394.049h-.005a122.458,122.458,0,0,1-6.673-25.253l-.005-.005v-.005c-1.667-11.07-1.937-24.061,1.575-37.04a80.731,80.731,0,0,1,6.209-15.866c12.537-24.33,34.219-38.826,34.219-38.826S734.706,322.753,734.058,348.983Z" transform="translate(-392.373 -209.743)"/><path class="c" d="M657.7,338.945c-.016.216-.032.415-.059.658A1.036,1.036,0,0,1,657.7,338.945Z" transform="translate(-381.969 -226.879)"/><path class="c" d="M629.552,365.725a2.971,2.971,0,0,0,.566-.167C630.513,365.66,629.973,365.655,629.552,365.725Z" transform="translate(-369.382 -238.817)"/><path class="c" d="M630.912,364.794l.869.1A5.316,5.316,0,0,1,630.912,364.794Z" transform="translate(-369.992 -238.475)"/><path class="c" d="M654.368,362.168a.463.463,0,0,0-.092-.016c.081-.011.162-.027.227-.032.011-.011.016-.016.021-.016s.005.005-.005.016-.005.011-.011.016S654.427,362.158,654.368,362.168Z" transform="translate(-380.473 -237.268)"/><path class="c" d="M655.243,362.622a.2.2,0,0,1-.135.065A.45.45,0,0,1,655.243,362.622Z" transform="translate(-380.846 -237.501)"/><path class="c" d="M668.828,401.117c0,.011-.005.022-.005.032a122.282,122.282,0,0,1-6.587,25.015l-.464.049c-.491.049-.976.1-1.451.151l-.394.048h-.005c-2.055.232-4,.513-6,.734-9.543-7.892-27.821-25.625-34.44-50.117a81.608,81.608,0,0,1-2.73-19.383,99.31,99.31,0,0,1,.534-12.813c2.39-.464,4.569.788,6.387.507-.194.049-.329.113-.281.232,1.759-.151,3.021-.086,3.534-.566l-1.51-.178c1.327.043,1.543-.6,4.073-.232,1.457-.367,2.287-1.155.7-1.165.642-.1,2.055.329,1.559.8,2.784.016,2.573-.842,3.555-1.074h1.354c.227.032.485.076.777.135-.259.049-.534.129-.394.227.221.022.432.043.637.059a.459.459,0,0,0,.14.027.316.316,0,0,0,.076-.011c-.162.124-.129.372-.038.593.049.129.1.254.027.318-.043.038-.1.059-.243.059-.27.005-.631-.005-1.133-.043a.9.9,0,0,0,.68.388,4.3,4.3,0,0,0,.507.059c.108.005.221.005.335,0a3.362,3.362,0,0,1,1.354.054c.318-.286-.016-.593-.3-.879a3.841,3.841,0,0,1-.669-.761.356.356,0,0,0,.065.059c.21.194.216.038.324-.119a2.076,2.076,0,0,1-.437-.167h.394V342.3c.016-.086.027-.178.043-.27a11.969,11.969,0,0,0-.011-4.229c.259.815.777,2.433,1.106.378-.4-3.361.27-.782.761-2.681-.14-3.339-1.149-.583-.75-5.513.005-.534-.372-.038-.55.5.291-3.156-.086-4.969.254-7.882-.156,1.1-.356,1.662-.62.016.383.6.469-1.09.615-2.541l.383.367c.189.183.383.372.572.561a108.323,108.323,0,0,1,20.468,27.243l0,0a.005.005,0,0,1,0,0,80.231,80.231,0,0,1,6.215,15.861C670.754,377.078,670.49,390.047,668.828,401.117Z" transform="translate(-363.628 -218.412)"/><path class="f" d="M575.126,379.852a1.329,1.329,0,0,1-.334.48C574.953,379.976,575.045,379.868,575.126,379.852Z" transform="translate(-344.815 -245.23)"/><path class="f" d="M549.778,385.752a.076.076,0,0,1-.043.059C549.756,385.779,549.778,385.752,549.778,385.752Z" transform="translate(-333.574 -247.877)"/><path class="g" d="M624.368,449.267l-.394.049h-.005c-2.055.232-4,.513-6,.734a58.639,58.639,0,0,1-7.86.383l.081-.167c-2.212-.189-6.636-.577-6.625-1.764a33.852,33.852,0,0,0-4.758.685c-11.669-3.8-25.258-10.228-36.377-21.05-15.672-15.251-22.744-35.627-25.846-48.758a16.505,16.505,0,0,1,6.306.761c-1.16-.545.658-.669.944-.89a.138.138,0,0,0,.038.205,2.579,2.579,0,0,0,1.98-.658h4.44v-.367a1.1,1.1,0,0,1,.437.065c.022-.367,1.165-.27,2.444-.264-2.562.415-.825.793-1.974,1.37a9.484,9.484,0,0,0,4.122-.707c.275-.1.556-.194.852-.286.07-.022.146-.043.221-.065a.543.543,0,0,0,.178-.059c.07-.038.14-.076.21-.108a1.558,1.558,0,0,1,.982-.113,9.464,9.464,0,0,0,.971.426,1.332,1.332,0,0,0,.275-.21,2.852,2.852,0,0,1-.761-1.489c-.038-.2-.054-.378-.086-.518-.032-.34-.081-.556-.178-.534.329-.68.523-1.678,1.057-1.527l-.022-.146-.016-.21c-.005-.146-.016-.291-.022-.442q-.016-.453-.016-.922c.005-.529.022-1.057.032-1.565a106.312,106.312,0,0,1,21.8,9.425,81.973,81.973,0,0,1,16.146,12.122c9.732,9.473,16.147,20.921,20.344,31.381v.005l.005.005a122.213,122.213,0,0,1,7.072,25.2Z" transform="translate(-327.675 -241.315)"/><path class="f" d="M743.233,513.169h.027a.04.04,0,0,1-.022.005Z" transform="translate(-420.38 -305.038)"/><path class="g" d="M788.466,362.231s-3.064,37.515-28.128,61.915c-11.221,10.924-24.951,17.371-36.69,21.153-.092-.782-2.379.14-3.711-.086-1.074.119-2.153.831-1.225,1.047-4.014-.48-9.322-.313-13.541-.518a21.091,21.091,0,0,1-5.265-.744l-1.02.081-.464.049a122.588,122.588,0,0,1,7.056-25.1c4.208-10.45,10.622-21.886,20.338-31.343a81.863,81.863,0,0,1,16.147-12.122C764.416,363.542,788.466,362.231,788.466,362.231Z" transform="translate(-400.278 -237.325)"/><path class="h" d="M204.827,322.964s-7.514,15.028-19.126,18.443,28.006,0,28.006,0-2.049-10.929.683-12.3S204.827,322.964,204.827,322.964Z" transform="translate(-169.307 -219.709)"/><path class="i" d="M199.275,270.38c-.409-3.561,1.539-6.709,4.35-7.031.032,0,.063,0,.1,0a4.1,4.1,0,0,0-1.061-.017c-2.811.323-4.758,3.471-4.35,7.031.4,3.52,2.96,6.121,5.735,5.868C201.664,275.88,199.631,273.487,199.275,270.38Z" transform="translate(-175.895 -192.943)"/><path class="i" d="M200.482,279.183c-3.395-1.149-5.411-4.254-4.5-6.934.01-.03.025-.058.036-.088a4.1,4.1,0,0,0-.468.952c-.908,2.68,1.109,5.784,4.5,6.934,3.356,1.136,6.8-.066,7.753-2.683C206.475,279.368,203.444,280.186,200.482,279.183Z" transform="translate(-174.582 -196.918)"/><path class="h" d="M162.076,399.483l1,28.932L178.791,465.3s-4.1,19.126,4.1,18.443.683-19.126.683-19.126l-7.514-38.936-1.366-32.1Z" transform="translate(-159.664 -251.388)"/><circle class="h" cx="15.028" cy="15.028" r="15.028" transform="translate(31.422 83.445)"/><path class="j" d="M219.766,356.554l-14.81-5.917s-2.95.452-11.147,1.135-11.837.039-11.837.039-17.536,6.109-16.853,9.524,8.2,57.379,11.612,54.647a20.49,20.49,0,0,1,5.465-3.415l37.57-3.415Z" transform="translate(-161.021 -232.124)"/><path class="j" d="M164.533,367.562H162.31s-2.559,1.366-2.559,5.465-2.049,16.394-2.049,16.394h10.929Z" transform="translate(-157.702 -239.717)"/><path class="i" d="M191.392,366.565l-8.25-13.328a1.864,1.864,0,0,0-1.817-.869l-2.151.269a1.864,1.864,0,0,0-1.569,2.335l4.225,15.691s6.68,27.719.266,42.549l-.266,6.633s-6.148,20.493-4.782,36.2,2.049,29.373,2.049,29.373-3.415,10.246-2.049,13.662a7.989,7.989,0,0,1,.012,4.162,137.918,137.918,0,0,0-2.151,30.089l.09,3.318s-4.782,4.1-.683,4.782,17.077,2.049,17.077,2.049,2.732-4.782,1.366-5.465l4.1-22.542s6.831-9.563,6.148-15.711c0,0,2.049-10.246,0-15.028l.683-30.056,2.732,36.2-4.1,45.083s-5.465,4.1-2.049,5.465,24.591,8.2,24.591,4.782-1.366-4.782-1.366-4.782l8.88-92.216L227.6,410.965s-32.1-2.732-29.373-38.936c0,0,7.855-16.313,15.608-19.392a.446.446,0,0,0-.032-.847l-3.148-.9a.432.432,0,0,0-.262,0C209.023,351.359,197.18,355.632,191.392,366.565Z" transform="translate(-164.411 -232.23)"/><path class="i" d="M228.336,695.238l-.109.982a45.213,45.213,0,0,1-5.973,17.718c-1.529,2.629-2.7,5.6-2.115,7.94,1.366,5.465.683,7.514.683,7.514h10.929v-2.049l6.1,1.664A6.759,6.759,0,0,0,242,728.88a3.724,3.724,0,0,0,2.732-3.586c0-1.708-1.3-3.3-2.826-4.57a20.289,20.289,0,0,1-6.66-10.178l-.076-.28,4.1-15.028Z" transform="translate(-185.644 -386.717)"/><path class="i" d="M176.924,695.858l-.109.982a45.213,45.213,0,0,1-5.973,17.718c-1.529,2.629-2.7,5.6-2.115,7.94,1.366,5.465.683,7.514.683,7.514H180.34v-2.049l6.1,1.664a6.759,6.759,0,0,0,4.144-.127,3.724,3.724,0,0,0,2.732-3.586c0-1.708-1.3-3.3-2.826-4.57a20.289,20.289,0,0,1-6.66-10.178l-.076-.281,4.1-15.028Z" transform="translate(-162.579 -386.995)"/><path class="i" d="M223.691,298.784s10.765-6.219,14.934-6.6a6.86,6.86,0,0,0-.1-5.362s-.635-8.436-11.165-8.108c0,0-12.437-6.737-16.612-3.986s-13.472,15.949-9.545,23.838c0,0-4.539,2.284-4.755,1.055s-3.588,2.073.864,4.918c0,0-6.232,6.309-.174,10.257,0,0-.277-5.6,3.237-7.287s.438.085.438.085-6.016,7.538,2.969,10.473c0,0-3.353-3.818.019-7.121,0,0-1.045,7.713,5.168,8.525,0,0-3.2-4.581-1.518-6.233,0,0,.716,5.681,4.223,6.363l2.631.512.89-4.577s-2.5,5.847,3.347,6.192c0,0-2.828-8.862.916-14.071S223.691,298.784,223.691,298.784Z" transform="translate(-174.208 -197.775)"/><ellipse class="i" cx="6.489" cy="5.123" rx="6.489" ry="5.123" transform="matrix(0.604, -0.797, 0.797, 0.604, 20.688, 80.743)"/><path class="k" d="M215.862,277.771a7.585,7.585,0,0,0-3.407,2.577,7.727,7.727,0,0,0-1.493,3.421,7.585,7.585,0,0,0,3.407-2.577,7.727,7.727,0,0,0,1.493-3.421Z" transform="translate(-181.596 -199.435)"/><path class="j" d="M313.73,471.453l-.868-1.158,6.3-4.72a5.322,5.322,0,0,0,2.085-4.9l-3.12-25.2a10.487,10.487,0,0,1,4.11-9.66l6.865-5.144a6.14,6.14,0,0,1,8.586,1.23l1.59,2.122-1.158.868-1.59-2.122a4.692,4.692,0,0,0-6.561-.94l-6.865,5.144a9.037,9.037,0,0,0-3.541,8.324l3.12,25.2a6.771,6.771,0,0,1-2.653,6.237Z" transform="translate(-227.31 -262.995)"/><path class="j" d="M129.964,374.549l5.135-6.763-1.736-2.315-7.7,3.34L92.055,392.035,98,399.974Z" transform="translate(-41.297 -163.956)"/><rect class="a" width="16.122" height="58.185" rx="7.272" transform="translate(103.181 164.646) rotate(-36.846)"/><path class="l" d="M415.747,494.184l-.93-1.241-.186-.248a4.009,4.009,0,0,1-.8,5.612l-6.485,4.86a4.009,4.009,0,0,1-5.612-.8l.186.248.93,1.241a4.009,4.009,0,0,0,5.612.8l6.485-4.86A4.009,4.009,0,0,0,415.747,494.184Z" transform="translate(-267.177 -295.854)"/><path class="e" d="M392.177,447.263c-.056-.055-.1-.1-.105-.076C392.126,447.253,392.161,447.27,392.177,447.263Z" transform="translate(-262.844 -275.435)"/><path class="e" d="M390.367,444.331a.149.149,0,0,0-.057-.1Z" transform="translate(-262.054 -274.113)"/><path class="e" d="M403.7,462.861c-.06.019.055.148.131.271Z" transform="translate(-268.054 -282.469)"/><path class="e" d="M409.47,470.267l.054.072a.49.49,0,0,0,.1.015Z" transform="translate(-270.649 -285.792)"/><path class="e" d="M413.107,475.653a.271.271,0,0,1,.2.084.2.2,0,0,0,.065-.1C413.323,475.569,413.181,475.638,413.107,475.653Z" transform="translate(-272.281 -288.188)"/><path class="e" d="M424.364,491.361l-.03.053a.407.407,0,0,0,.061.062Z" transform="translate(-277.317 -295.255)"/><path class="e" d="M386.84,439l.007.014C386.916,439.08,386.882,439.04,386.84,439Z" transform="translate(-260.497 -271.766)"/><path class="e" d="M353.769,449.608c-.1-.371.493.361.292-.164C354.042,449.521,353.572,449.2,353.769,449.608Z" transform="translate(-245.639 -276.428)"/><path class="e" d="M378.038,427.549a.228.228,0,0,0-.006.106C378.044,427.643,378.048,427.617,378.038,427.549Z" transform="translate(-256.544 -266.628)"/><path class="e" d="M373.248,424.235a.881.881,0,0,0-.228.206.156.156,0,0,0,.042-.014A.505.505,0,0,1,373.248,424.235Z" transform="translate(-254.297 -265.141)"/><path class="e" d="M368.854,428.474a.587.587,0,0,0,.065-.016l.07-.073Z" transform="translate(-252.428 -267.003)"/><path class="d" d="M390.629,460.9c-.086.1-.253.238-.328.193l.149-.267c-.011-.012-.02-.026-.03-.04l.029-.037-2.141-2.858.056,0-.1-.06-.272-.362c.034-.008.079,0,.143.067-.11-.336-.243-.189-.315-.495,0-.037.014-.032.039-.014l-.251-.221c.077.022.1-.141.191.04-.247-.55-.706-.656-.7-.937l.041.031c-.412-.453-.31-.208-.452-.21l-.229-.305.059-.4-.183.037c-.046-.071-.135-.212-.063-.228-.28-.182-.027.087-.223.006-.12-.416-.727-.851-.567-1.085-.19-.04.153.369-.177.076.157-.272-.339-.37-.455-.746.187,0,.334.329.219-.047-.335-.028-.388-.61-.614-.831-.169.108-.474-.493-.841-.872a11.6,11.6,0,0,0-.737-1.288l.036-.009c-.219.046-.489-.379-.742-.647.106-.061.183-.037.346.089l-.207-.275a.744.744,0,0,1-.345-.256l.173-.021a6.581,6.581,0,0,1-.968-1.163c-.09.04-.077.3-.2.33l-.187-.249a.141.141,0,0,1,.162.039c-.04-.037-.165-.114-.2-.22l.252.122c-.116-.249-.17-.048-.289-.227.09-.062-.033-.174.055-.2.041.038.076.177.16.217a1.439,1.439,0,0,1-.245-.6c-.037.054-.117.088-.235-.045-.281-.362.011-.2-.1-.451-.127-.043-.24-.324-.374-.233-.08-.108-.034-.173-.03-.241-.2-.147-.68-.874-.659-.556l.027.055-.029-.027a20.59,20.59,0,0,1-1.412-1.922l.044-.032a8.861,8.861,0,0,0-.934-.99c-.081-.109-.113-.317-.026-.309a2.021,2.021,0,0,1-.549-.712c.288.226-.006-.148.273.248-.236-.394-.229-.529-.642-.832.212.05-.066-.381-.229-.529l.112.316a4.69,4.69,0,0,1-.4-.542l.217-.016c-.382-.882-1.315-1.122-1.443-1.916-.251-.121.232.461-.02.374a6.152,6.152,0,0,1-.377-.984c-.272-.532-.544-.279-.858-.814,0,.1-.1.267-.426-.065-.239-.359-.1-.588.107-.4.066.079.08.132.059.141.1.1.234.226.189.047l-.086-.005c-.075-.211-.435-.681-.266-.634-.245-.223-.169-.047-.052.166-.255-.5-.515-.692-.8-1.185.025.094.014.207-.04.134-.435-.716-.319-.219-.681-.654-.113-.317.26-.051-.148-.456-.154-.318.095-.163.22-.085a3.185,3.185,0,0,1-.673-1.075l.206.187a2.117,2.117,0,0,1-.284-.328l-.011.2c-.078-.142-.159-.251-.113-.281-.168-.081-.1.232-.389.04-.075-.211-.447-.478-.352-.641.356.573.1-.164.458.274a1.254,1.254,0,0,1-.24-.325c0-.031.042,0,.077.026-.261-.607-.334-.119-.731-.654.129.009.056-.235-.026-.309.159.216-.054.2-.261.049-.2-.388-.324-.338-.451-.522l.124.226c-.13-.011-.248-.189-.451-.409.046-.066.2.185.167.08-.336-.161-.305-.7-.675-1-.075-.211.135-.127.058-.3-.411-.337-.228-.528-.638-.9-.011.2.031.207-.3-.022l.609.659-.5-.344c.16.217.407.405.486.548-.25-.154-.207-.151-.217.017-.063-.413-.53-.516-.679-.937l.268-.185c-.268-.6-.816-.811-1.25-1.526l.115.248c-.17-.012-.322-.4-.526-.584.1-.045.033-.2.018-.336-.056.06-.359-.492-.579-.422l-.108-.383c-.331-.539-.776-.518-1.207-1.156.091.022.089-.062.1-.115s.057-.066.283.166c-.205-.276-.39-.556-.406-.452a.483.483,0,0,0-.055-.1l-.038-.049c-.014-.014-.032.027-.049.04l-.233.287a1.526,1.526,0,0,1-.437.439c-.077.142-.052.277-.276.483-.039.007-.033-.043-.033-.043.01.067-.241.332-.006.275-.711.212-1.331,1.289-1.959,1.455-.323.34-.723.739-1.042,1.02,0-.043-.034-.042.034-.086-.509.3-.069.475-.656.816-.375.083.212-.3.006-.215-.3-.216-.586.554-1.07.668l.071-.084c-.34.121-.567.627-1.029.946,0,0,0-.042-.03-.045a5.29,5.29,0,0,1-1.15,1.214c.056-.211.157-.2-.01-.259-.185.156.191.145-.18.457-.172.029-.5.175-.62.074l.367-.267c-.3-.025-.478.34-.7.446l-.023-.088c-.557.414-.451.594-1.087.989l.1.013c-.231.4-.355.079-.619.43l-.218-.121a10.575,10.575,0,0,1-1.107.938,6.823,6.823,0,0,1,.859-.89,3.052,3.052,0,0,0-.84.633c.083-.072.173-.187.282-.211a2.6,2.6,0,0,1-1.014.854c-.039-.217-.5-.007-1.064.268l-.212.1-.108.053c-.035.018-.092.031-.045.067.086.124.17.246.243.363a1.693,1.693,0,0,1,.273.608l.353.4c.078.09.153.182.225.277.144.19.278.39.412.6.268.412.534.85.876,1.285.027-.511.2.253.43,0,.169.19.224.272.222.3l-.021-.051.021.054h0l.307.745c.032.207-.206-.152-.253-.087.318.467.028.275.18.628.051-.134.256.053.412.338l-.147-.456c.616.523.182.715.8,1.244l-.236-.138c.295.289.9,1.205,1.357,1.363.012.081,0,.213-.132.084A24.388,24.388,0,0,1,356,443.677l-.11-.01c.128.131.314.16.384.392-.034.011-.11-.009-.063.061a1.856,1.856,0,0,1,.511.522l-.2-.109c.484.826,1.056,1.032,1.579,1.636-.2.144.19.79.382,1.112l-.035.01a21.392,21.392,0,0,0,1.98,2.147,22.978,22.978,0,0,0,1.7,2.7c-.058-.152.167-.093.3.038.1.221.533.43.332.533l-.048-.071c-.066.276.276.636.5.947l.271-.124c.265,1.06,1.707,2.019,1.733,2.686.2.151.384.392.587.542l-.133.083a14.289,14.289,0,0,0,1.087,1.488l-.191-.069c.274.382.716.2.983.546l-.108.244a9.73,9.73,0,0,0,1.482,1.961c-.035.01-.1.031-.191-.07.226.312.768,1.288.94.984-.161.133.491.689.829.988l-.164.037a1.7,1.7,0,0,1,.787.543c.058.111-.034.16-.1.006.183.378.309.169.543.618l-.19-.09a.823.823,0,0,0,.5.406c.209.176.451.666.377.8a.615.615,0,0,1,.449.337c-.022.058-.1.005-.143-.022.341.63.775.736.946,1.216a.118.118,0,0,0-.024.121c-.334-.453-.6-.82-.565-.793-.113.085.139.464-.234.292a3.865,3.865,0,0,1,1.077.983.2.2,0,0,1,0,.076l-.04-.027a.68.68,0,0,0,.186.21,2.243,2.243,0,0,0,.186.319c-.062.112.262.455.393.64.113-.108.271.144.207-.155.013.036-.041-.023-.136-.14a.5.5,0,0,0-.071-.068l.02,0-.346-.445a.778.778,0,0,1,.417.458c.15.033.308.075.39.1.013.378.278.927.221,1.073.242.251.5.569.755.845a4.959,4.959,0,0,0,.394.382,1.444,1.444,0,0,0,.452.328.5.5,0,0,1,.142.245c.022.081.057.073.1.1a.53.53,0,0,1-.125.055l-.082-.09a.546.546,0,0,0-.141-.124c.109.073.183.34.4.171l.548-.223a1.844,1.844,0,0,0,.363-.184c.079-.055.13-.11.134-.166.5-.1-.2.28.434-.007l-.064.093c1.409-.212,1.82-1.329,3.318-1.691-.1.028-.156.043-.191.023,1.607-.677,2.878-2.033,4.345-2.9.409-.264.355-.406.507-.674l.189.053.24-.478c.407-.591,1.17-.571,1.594-1.416l-.162.008c.24-.218.629-.805.693-.678a.2.2,0,0,1,.11-.212l.073.049c.137-.231.262-.47.393-.7.436-.436.215.3.785-.4C390.552,461.46,390.753,460.839,390.629,460.9Zm-2.963-3.9a.142.142,0,0,1,0,.047l-.11-.146C387.6,456.934,387.629,456.965,387.667,457Zm-13.374,11.12.026,0a.192.192,0,0,1-.1,0c-.108-.107-.114-.166-.1-.2C374.164,467.978,374.218,468.041,374.292,468.122Z" transform="translate(-243.434 -264.672)"/><path class="e" d="M395.448,504.805a.422.422,0,0,1,.046.043.875.875,0,0,0-.026-.093l-.071-.014Z" transform="translate(-264.336 -301.258)"/><path class="e" d="M404.047,463.543a.12.12,0,0,1,.008.047.131.131,0,0,1,0-.029Z" transform="translate(-268.217 -282.775)"/><path class="e" d="M416.4,479.745c-.3-.7-.016.2-.458-.428l.316.5C416.244,479.7,416.228,479.54,416.4,479.745Z" transform="translate(-273.553 -289.852)"/><path class="e" d="M414.148,476.386c-.164-.127-.2-.158-.1.062C414.255,476.684,414.111,476.393,414.148,476.386Z" transform="translate(-272.677 -288.492)"/><path class="e" d="M399.775,457.37l.132-.059C399.744,457.129,399.861,457.342,399.775,457.37Z" transform="translate(-266.3 -279.947)"/><path class="e" d="M238.034,315.563l-.285-.294.2.221Z" transform="translate(-106.658 -141.435)"/><path class="e" d="M369.449,427.587l.171.079C369.719,427.532,369.612,427.365,369.449,427.587Z" transform="translate(-252.695 -266.596)"/><path class="e" d="M355.226,438.652a3.317,3.317,0,0,0,.482-.233A.585.585,0,0,0,355.226,438.652Z" transform="translate(-246.315 -271.504)"/><path class="e" d="M217.624,343.108l.255.26-.094-.141Z" transform="translate(-97.629 -153.924)"/><path class="h" d="M247.556,395.767l1,28.932,15.711,36.887s-4.1,19.126,4.1,18.443.683-19.126.683-19.126l-7.514-38.936-1.366-32.1Z" transform="translate(-198.012 -249.721)"/><path class="j" d="M94.789,226.046l.375-2.58,3.04,1.215,9.563,15.027-19.81,10.246Z" transform="translate(-39.459 -100.25)"/></svg>